GRF
version=1
nRows=24
nColumns=19
inDegrees=no
endheader
time	1_ground_force_vx	1_ground_force_vy	1_ground_force_vz	1_ground_force_px	1_ground_force_py	1_ground_force_pz	1_ground_torque_x	1_ground_torque_y	1_ground_torque_z	2_ground_force_vx	2_ground_force_vy	2_ground_force_vz	2_ground_force_px	2_ground_force_py	2_ground_force_pz	2_ground_torque_x	2_ground_torque_y	2_ground_torque_z
      1.00000000	      0.49635265	      0.04814429	     -0.09967560	      0.65710364	      0.00000000	      0.43301319	     -0.00000000	     -0.36734124	     -0.00000000	    -33.69406833	    529.90745800	    -32.92567718	     -0.49741964	      0.00000000	      0.33636182	      0.00000000	     -0.03785493	     -0.00000000
      1.00100000	      0.38992314	      0.21220169	     -0.47833966	      2.01320941	      0.00000000	      1.48785518	     -0.00000000	     -1.77303434	      0.00000000	    -33.30525038	    530.17857910	    -32.87384314	     -0.49713025	      0.00000000	      0.33645485	      0.00000000	     -0.01083269	     -0.00000000
      1.00200000	      0.28776128	     -0.07382686	     -0.65905380	      2.01032499	      0.00000000	      2.09985861	     -0.00000000	     -2.39074713	      0.00000000	    -32.97245284	    530.46842342	    -32.80171330	     -0.49688798	      0.00000000	      0.33646806	      0.00000000	      0.01676197	     -0.00000000
      1.00300000	      0.62291609	     -0.07499456	     -0.49789103	      0.43019145	      0.00000000	      1.58450573	     -0.00000000	     -1.47922513	      0.00000000	    -32.64750431	    530.87169126	    -32.69292301	     -0.49664599	      0.00000000	      0.33655967	      0.00000000	      0.03343582	     -0.00000000
      1.00400000	      0.73926625	     -0.29816889	     -0.44553564	      0.03440510	      0.00000000	      0.68229615	     -0.00000000	     -0.47297691	     -0.00000000	    -32.32983709	    531.58771688	    -32.63690924	     -0.49631825	      0.00000000	      0.33667929	      0.00000000	      0.05603979	     -0.00000000
      1.00500000	      0.48035517	     -1.05104435	     -0.53744122	      0.22712573	      0.00000000	      0.29581727	     -0.00000000	     -0.10371893	     -0.00000000	    -31.94686894	    532.30922729	    -32.57631108	     -0.49596878	      0.00000000	      0.33672018	      0.00000000	      0.07587266	     -0.00000000
      1.00600000	      0.23516412	     -1.25368829	     -0.60758188	      0.43780355	      0.00000000	      0.14282457	      0.00000000	      0.00359155	     -0.00000000	    -31.51061323	    532.90097925	    -32.46534797	     -0.49566230	      0.00000000	      0.33672033	      0.00000000	      0.08294116	     -0.00000000
      1.00700000	      0.17561500	     -0.71520054	     -0.54876943	      1.08621686	      0.00000000	     -0.81774029	      0.00000000	      0.46198883	     -0.00000000	    -31.10569777	    533.50797407	    -32.38343891	     -0.49540256	      0.00000000	      0.33675965	      0.00000000	      0.10382957	     -0.00000000
      1.00800000	      0.17332278	     -0.13155126	     -0.88940158	      1.52070586	      0.00000000	     -1.86917635	      0.00000000	      0.94745256	     -0.00000000	    -30.71176959	    534.09551901	    -32.32501638	     -0.49511819	      0.00000000	      0.33680589	     -0.00000000	      0.13316184	     -0.00000000
      1.00900000	      0.04015020	     -0.12841407	     -1.55619750	      0.90933416	      0.00000000	     -0.90993518	      0.00000000	      0.43360632	     -0.00000000	    -30.25800370	    534.92797744	    -32.25717752	     -0.49473178	      0.00000000	      0.33675931	     -0.00000000	      0.14042122	     -0.00000000
      1.01000000	      0.25890502	     -0.55802328	     -1.42280096	      0.38179484	      0.00000000	      0.14047173	     -0.00000000	     -0.06218289	     -0.00000000	    -29.74263073	    536.08040778	    -32.19044146	     -0.49432652	      0.00000000	      0.33670649	     -0.00000000	      0.15315818	      0.00000000
      1.01100000	      0.64008551	     -0.37465622	     -0.56209344	      0.23968558	      0.00000000	      0.25759256	     -0.00000000	     -0.07985448	     -0.00000000	    -29.29981940	    537.27647761	    -32.08761543	     -0.49400202	      0.00000000	      0.33675313	     -0.00000000	      0.17993159	      0.00000000
      1.01200000	      0.24851149	     -0.09059021	     -0.01356882	      0.63615733	      0.00000000	     -0.05074545	     -0.00000000	     -0.02242770	      0.00000000	    -28.87907647	    538.12246387	    -31.99282135	     -0.49378208	      0.00000000	      0.33679415	     -0.00000000	      0.20674282	      0.00000000
      1.01300000	     -0.28208090	     -0.43139633	     -0.05694826	      2.69454069	      0.00000000	     -1.35132724	      0.00000000	      0.02041601	      0.00000000	    -28.39266834	    538.89305122	    -31.93707782	     -0.49359332	      0.00000000	      0.33680895	     -0.00000000	      0.22940931	      0.00000000
      1.01400000	     -0.12306523	     -0.50726501	     -0.19663447	      4.48478823	      0.00000000	     -2.35227894	      0.00000000	      0.09957333	      0.00000000	    -27.95984619	    539.81415077	    -31.89347797	     -0.49337025	      0.00000000	      0.33684923	     -0.00000000	      0.25432843	      0.00000000
      1.01500000	      0.16227415	     -0.32483062	     -0.42059955	      1.28272294	      0.00000000	      0.48476216	      0.00000000	      0.40524864	      0.00000000	    -27.56620047	    540.74250093	    -31.89810914	     -0.49307614	      0.00000000	      0.33686191	     -0.00000000	      0.28527744	      0.00000000
      1.01600000	      0.30656737	     -0.00600223	     -0.86711371	     -2.12339071	      0.00000000	      3.45354887	     -0.00000000	      0.84893787	      0.00000000	    -27.07300314	    541.68596400	    -31.89250842	     -0.49276885	      0.00000000	      0.33686291	     -0.00000000	      0.32628170	      0.00000000
      1.01700000	      0.33179410	      0.24204656	     -1.07625922	     -1.53789729	      0.00000000	      2.25920054	     -0.00000000	      0.72236102	      0.00000000	    -26.57216802	    542.39285298	    -31.87360026	     -0.49251294	      0.00000000	      0.33683298	     -0.00000000	      0.36449668	     -0.00000000
      1.01800000	      0.47541443	      0.26129022	     -0.92220290	     -0.28284381	      0.00000000	      0.64436780	     -0.00000000	      0.39670666	      0.00000000	    -26.20690810	    542.71444371	    -31.81288473	     -0.49235806	      0.00000000	      0.33680059	     -0.00000000	      0.39579311	     -0.00000000
      1.01900000	      0.58999395	      0.16894009	     -0.61560402	      0.14824738	      0.00000000	      0.28057285	      0.00000000	      0.17045232	      0.00000000	    -25.87868468	    543.06737887	    -31.68344193	     -0.49224431	      0.00000000	      0.33683267	     -0.00000000	      0.41801944	     -0.00000000
      1.02000000	      0.55621388	     -0.32145420	     -0.40563829	      0.28125318	      0.00000000	      0.17902124	      0.00000000	      0.06023009	      0.00000000	    -25.39302788	    543.88855587	    -31.55098578	     -0.49203469	      0.00000000	      0.33688909	     -0.00000000	      0.43544521	     -0.00000000
      1.02100000	      0.48188091	     -0.81799232	     -0.43504568	      0.31388059	      0.00000000	      0.17581769	      0.00000000	     -0.00750329	     -0.00000000	    -24.74121356	    545.05378930	    -31.48375894	     -0.49170217	      0.00000000	      0.33692977	     -0.00000000	      0.45812388	     -0.00000000
      1.02200000	      0.33585613	     -0.74045615	     -0.43609374	      0.33519334	      0.00000000	      0.22592393	      0.00000000	     -0.07255417	     -0.00000000	    -24.13826608	    546.20099602	    -31.35947217	     -0.49136871	      0.00000000	      0.33696892	      0.00000000	      0.48186535	     -0.00000000
      1.02300000	      0.29278097	     -0.20836546	     -0.16746469	      0.23214928	      0.00000000	      0.19442819	     -0.00000000	     -0.12541142	     -0.00000000	    -23.64354099	    547.15607629	    -31.21766525	     -0.49111858	      0.00000000	      0.33699933	      0.00000000	      0.49652055	      0.00000000
